<svg width="40" height="40" viewBox="0 0 40 40" fill="none" xmlns="http://www.w3.org/2000/svg">
<mask id="mask0_5519_902" style="mask-type:alpha" maskUnits="userSpaceOnUse" x="0" y="0" width="40" height="40">
<rect width="40" height="40" fill="#D9D9D9"/>
</mask>
<g mask="url(#mask0_5519_902)">
<path d="M25.0003 33.3334C21.2781 33.3334 18.1253 32.0417 15.542 29.4584C12.9587 26.8751 11.667 23.7223 11.667 20.0001C11.667 16.2779 12.9587 13.1251 15.542 10.5417C18.1253 7.95841 21.2781 6.66675 25.0003 6.66675C28.7225 6.66675 31.8753 7.95841 34.4587 10.5417C37.042 13.1251 38.3337 16.2779 38.3337 20.0001C38.3337 23.7223 37.042 26.8751 34.4587 29.4584C31.8753 32.0417 28.7225 33.3334 25.0003 33.3334ZM26.2503 19.4584V14.5834C26.2503 14.2501 26.1306 13.9584 25.8912 13.7084C25.6514 13.4584 25.3545 13.3334 25.0003 13.3334C24.6462 13.3334 24.3494 13.4515 24.1099 13.6876C23.8702 13.9237 23.7503 14.2223 23.7503 14.5834V20.0001C23.7503 20.1548 23.7781 20.3045 23.8337 20.4492C23.8892 20.5942 23.9864 20.7362 24.1253 20.8751L28.3753 25.0834C28.6198 25.3334 28.91 25.4584 29.2462 25.4584C29.5823 25.4584 29.8753 25.3356 30.1253 25.0901C30.3753 24.8445 30.5003 24.5529 30.5003 24.2151C30.5003 23.8773 30.3753 23.5834 30.1253 23.3334L26.2503 19.4584ZM4.58366 14.5834C4.22949 14.5834 3.93269 14.4629 3.69324 14.2217C3.45352 13.9809 3.33366 13.6823 3.33366 13.3259C3.33366 12.9698 3.45352 12.6737 3.69324 12.4376C3.93269 12.2015 4.22949 12.0834 4.58366 12.0834H8.75033C9.10449 12.0834 9.40144 12.204 9.64116 12.4451C9.8806 12.6859 10.0003 12.9845 10.0003 13.3409C10.0003 13.697 9.8806 13.9931 9.64116 14.2292C9.40144 14.4654 9.10449 14.5834 8.75033 14.5834H4.58366ZM2.91699 21.2501C2.56283 21.2501 2.26602 21.1295 2.02658 20.8884C1.78685 20.6476 1.66699 20.349 1.66699 19.9926C1.66699 19.6365 1.78685 19.3404 2.02658 19.1042C2.26602 18.8681 2.56283 18.7501 2.91699 18.7501H8.75033C9.10449 18.7501 9.40144 18.8706 9.64116 19.1117C9.8806 19.3526 10.0003 19.6512 10.0003 20.0076C10.0003 20.3637 9.8806 20.6598 9.64116 20.8959C9.40144 21.132 9.10449 21.2501 8.75033 21.2501H2.91699ZM4.58366 27.9167C4.22949 27.9167 3.93269 27.7962 3.69324 27.5551C3.45352 27.3142 3.33366 27.0156 3.33366 26.6592C3.33366 26.3031 3.45352 26.007 3.69324 25.7709C3.93269 25.5348 4.22949 25.4167 4.58366 25.4167H8.75033C9.10449 25.4167 9.40144 25.5373 9.64116 25.7784C9.8806 26.0192 10.0003 26.3179 10.0003 26.6742C10.0003 27.0304 9.8806 27.3265 9.64116 27.5626C9.40144 27.7987 9.10449 27.9167 8.75033 27.9167H4.58366Z" fill="#1C1B1F"/>
</g>
</svg>
