<svg width="40" height="40" viewBox="0 0 40 40" fill="none" xmlns="http://www.w3.org/2000/svg">
<mask id="mask0_5519_922" style="mask-type:alpha" maskUnits="userSpaceOnUse" x="0" y="0" width="40" height="40">
<rect width="40" height="40" fill="#D9D9D9"/>
</mask>
<g mask="url(#mask0_5519_922)">
<path d="M30.4163 21.2501C30.7705 21.2501 31.0675 21.1295 31.3072 20.8884C31.5466 20.6476 31.6663 20.349 31.6663 19.9926C31.6663 19.6365 31.5466 19.3404 31.3072 19.1042C31.0675 18.8681 30.7705 18.7501 30.4163 18.7501H25.4163C25.0622 18.7501 24.7654 18.8706 24.5259 19.1117C24.2862 19.3526 24.1663 19.6512 24.1663 20.0076C24.1663 20.3637 24.2862 20.6598 24.5259 20.8959C24.7654 21.132 25.0622 21.2501 25.4163 21.2501H30.4163ZM30.4163 16.2501C30.7705 16.2501 31.0675 16.1295 31.3072 15.8884C31.5466 15.6476 31.6663 15.349 31.6663 14.9926C31.6663 14.6365 31.5466 14.3404 31.3072 14.1042C31.0675 13.8681 30.7705 13.7501 30.4163 13.7501H25.4163C25.0622 13.7501 24.7654 13.8706 24.5259 14.1117C24.2862 14.3526 24.1663 14.6512 24.1663 15.0076C24.1663 15.3637 24.2862 15.6598 24.5259 15.8959C24.7654 16.132 25.0622 16.2501 25.4163 16.2501H30.4163ZM14.9997 21.9167C13.9441 21.9167 13.0186 22.007 12.223 22.1876C11.4277 22.3681 10.7283 22.6529 10.1247 23.0417C9.56912 23.3473 9.13856 23.738 8.83301 24.2138C8.52745 24.6899 8.37467 25.202 8.37467 25.7501C8.37467 26.012 8.46745 26.2302 8.65301 26.4047C8.83829 26.5794 9.06495 26.6667 9.33301 26.6667H20.6663C20.9344 26.6667 21.1611 26.5762 21.3463 26.3951C21.5319 26.2142 21.6247 25.9854 21.6247 25.7084C21.6247 25.217 21.4788 24.7399 21.1872 24.2772C20.8955 23.8147 20.4719 23.4029 19.9163 23.0417C19.3052 22.6529 18.5969 22.3681 17.7913 22.1876C16.9858 22.007 16.0552 21.9167 14.9997 21.9167ZM14.9963 19.4167C15.8319 19.4167 16.5483 19.1192 17.1455 18.5242C17.7427 17.9292 18.0413 17.214 18.0413 16.3784C18.0413 15.5429 17.7438 14.8265 17.1488 14.2292C16.5538 13.632 15.8386 13.3334 15.003 13.3334C14.1675 13.3334 13.4511 13.6309 12.8538 14.2259C12.2566 14.8209 11.958 15.5362 11.958 16.3717C11.958 17.2073 12.2555 17.9237 12.8505 18.5209C13.4455 19.1181 14.1608 19.4167 14.9963 19.4167ZM5.83301 33.3334C5.16634 33.3334 4.58301 33.0834 4.08301 32.5834C3.58301 32.0834 3.33301 31.5001 3.33301 30.8334V9.16675C3.33301 8.50008 3.58301 7.91675 4.08301 7.41675C4.58301 6.91675 5.16634 6.66675 5.83301 6.66675H34.1663C34.833 6.66675 35.4163 6.91675 35.9163 7.41675C36.4163 7.91675 36.6663 8.50008 36.6663 9.16675V30.8334C36.6663 31.5001 36.4163 32.0834 35.9163 32.5834C35.4163 33.0834 34.833 33.3334 34.1663 33.3334H5.83301Z" fill="#1C1B1F"/>
</g>
</svg>
