<svg width="40" height="40" viewBox="0 0 40 40" fill="none" xmlns="http://www.w3.org/2000/svg">
<mask id="mask0_5519_278" style="mask-type:alpha" maskUnits="userSpaceOnUse" x="0" y="0" width="40" height="40">
<rect width="40" height="40" fill="#D9D9D9"/>
</mask>
<g mask="url(#mask0_5519_278)">
<path d="M20.0003 19.8749L16.8337 22.2499C16.6948 22.3333 16.5628 22.3333 16.4378 22.2499C16.3128 22.1666 16.2781 22.0555 16.3337 21.9166L17.542 18.0416L14.292 15.4999C14.1531 15.4166 14.1184 15.3055 14.1878 15.1666C14.2573 15.0277 14.3614 14.9583 14.5003 14.9583H18.417L19.7087 10.9583C19.7642 10.8194 19.8614 10.7499 20.0003 10.7499C20.1392 10.7499 20.2364 10.8194 20.292 10.9583L21.542 14.9583H25.5003C25.6392 14.9583 25.7434 15.0277 25.8128 15.1666C25.8823 15.3055 25.8475 15.4166 25.7087 15.4999L22.4587 18.0416L23.6253 21.9166C23.6809 22.0555 23.6531 22.1666 23.542 22.2499C23.4309 22.3333 23.3059 22.3333 23.167 22.2499L20.0003 19.8749ZM20.0003 35.0416L11.8337 37.7916C11.4448 37.9305 11.0698 37.868 10.7087 37.6041C10.3475 37.3402 10.167 36.9999 10.167 36.5833V25.6666C8.91699 24.361 8.02116 22.9305 7.47949 21.3749C6.93783 19.8194 6.66699 18.2499 6.66699 16.6666C6.66699 12.8888 7.94477 9.72214 10.5003 7.16659C13.0559 4.61103 16.2225 3.33325 20.0003 3.33325C23.7781 3.33325 26.9448 4.61103 29.5003 7.16659C32.0559 9.72214 33.3337 12.8888 33.3337 16.6666C33.3337 18.2499 33.0628 19.8194 32.5212 21.3749C31.9795 22.9305 31.0837 24.361 29.8337 25.6666V36.5833C29.8337 36.9999 29.6531 37.3402 29.292 37.6041C28.9309 37.868 28.5559 37.9305 28.167 37.7916L20.0003 35.0416ZM20.0003 27.4999C23.0281 27.4999 25.5906 26.4513 27.6878 24.3541C29.785 22.2569 30.8337 19.6944 30.8337 16.6666C30.8337 13.6388 29.785 11.0763 27.6878 8.97909C25.5906 6.88186 23.0281 5.83325 20.0003 5.83325C16.9725 5.83325 14.41 6.88186 12.3128 8.97909C10.2156 11.0763 9.16699 13.6388 9.16699 16.6666C9.16699 19.6944 10.2156 22.2569 12.3128 24.3541C14.41 26.4513 16.9725 27.4999 20.0003 27.4999Z" fill="#1C1B1F"/>
</g>
</svg>
