<svg width="32" height="32" viewBox="6 5 20 21" fill="none" xmlns="http://www.w3.org/2000/svg">
<path d="M7.24994 13.6504C7.13327 13.5671 7.06227 13.4627 7.03694 13.3374C7.0116 13.2121 7.04927 13.0831 7.14994 12.9504C8.18327 11.5337 9.47927 10.4337 11.0379 9.65039C12.5966 8.86706 14.2589 8.47539 16.0249 8.47539C17.7916 8.47539 19.4583 8.85472 21.0249 9.61339C22.5916 10.3721 23.8999 11.4677 24.9499 12.9004C25.0499 13.0504 25.0833 13.1837 25.0499 13.3004C25.0166 13.4171 24.9499 13.5171 24.8499 13.6004C24.7499 13.6837 24.6333 13.7214 24.4999 13.7134C24.3666 13.7054 24.2499 13.6344 24.1499 13.5004C23.2333 12.2004 22.0543 11.2047 20.6129 10.5134C19.1716 9.82206 17.6423 9.47606 16.0249 9.47539C14.4083 9.47539 12.8916 9.82139 11.4749 10.5134C10.0583 11.2054 8.88327 12.2011 7.94994 13.5004C7.84994 13.6504 7.73327 13.7337 7.59994 13.7504C7.4666 13.7671 7.34994 13.7337 7.24994 13.6504ZM18.8499 25.9754C17.1166 25.5421 15.6999 24.6794 14.5999 23.3874C13.4999 22.0954 12.9499 20.5164 12.9499 18.6504C12.9499 17.8171 13.2499 17.1171 13.8499 16.5504C14.4499 15.9837 15.1749 15.7004 16.0249 15.7004C16.8749 15.7004 17.5999 15.9837 18.1999 16.5504C18.7999 17.1171 19.0999 17.8171 19.0999 18.6504C19.0999 19.2004 19.3083 19.6631 19.7249 20.0384C20.1416 20.4137 20.6333 20.6011 21.1999 20.6004C21.7666 20.6004 22.2499 20.4127 22.6499 20.0374C23.0499 19.6621 23.2499 19.1997 23.2499 18.6504C23.2499 16.7171 22.5416 15.0921 21.1249 13.7754C19.7083 12.4587 18.0166 11.8004 16.0499 11.8004C14.0833 11.8004 12.3916 12.4587 10.9749 13.7754C9.55827 15.0921 8.84994 16.7087 8.84994 18.6254C8.84994 19.0254 8.8876 19.5254 8.96294 20.1254C9.03827 20.7254 9.21727 21.4254 9.49994 22.2254C9.54994 22.3754 9.54594 22.5087 9.48794 22.6254C9.42994 22.7421 9.33394 22.8254 9.19994 22.8754C9.0666 22.9254 8.93727 22.9211 8.81194 22.8624C8.6866 22.8037 8.59927 22.7081 8.54994 22.5754C8.29994 21.9254 8.12094 21.2794 8.01294 20.6374C7.90494 19.9954 7.8506 19.3331 7.84994 18.6504C7.84994 16.4337 8.65427 14.5754 10.2629 13.0754C11.8716 11.5754 13.7923 10.8254 16.0249 10.8254C18.2749 10.8254 20.2083 11.5754 21.8249 13.0754C23.4416 14.5754 24.2499 16.4337 24.2499 18.6504C24.2499 19.4837 23.9543 20.1794 23.3629 20.7374C22.7716 21.2954 22.0506 21.5747 21.1999 21.5754C20.3499 21.5754 19.6206 21.2961 19.0119 20.7374C18.4033 20.1787 18.0993 19.4831 18.0999 18.6504C18.0999 18.1004 17.8959 17.6377 17.4879 17.2624C17.0799 16.8871 16.5923 16.6997 16.0249 16.7004C15.4583 16.7004 14.9706 16.8881 14.5619 17.2634C14.1533 17.6387 13.9493 18.1011 13.9499 18.6504C13.9499 20.2671 14.4293 21.6171 15.3879 22.7004C16.3466 23.7837 17.5839 24.5421 19.0999 24.9754C19.2499 25.0254 19.3499 25.1087 19.3999 25.2254C19.4499 25.3421 19.4583 25.4671 19.4249 25.6004C19.3916 25.7171 19.3249 25.8171 19.2249 25.9004C19.1249 25.9837 18.9999 26.0087 18.8499 25.9754ZM10.4999 8.42539C10.3666 8.50872 10.2333 8.52972 10.0999 8.48839C9.9666 8.44706 9.8666 8.35939 9.79994 8.22539C9.73327 8.09206 9.7166 7.97139 9.74994 7.86339C9.78327 7.75539 9.8666 7.65939 9.99994 7.57539C10.9333 7.07539 11.9083 6.69206 12.9249 6.42539C13.9416 6.15872 14.9749 6.02539 16.0249 6.02539C17.0916 6.02539 18.1333 6.15472 19.1499 6.41339C20.1666 6.67206 21.1499 7.04272 22.0999 7.52539C22.2499 7.60872 22.3376 7.70872 22.3629 7.82539C22.3883 7.94206 22.3756 8.05872 22.3249 8.17539C22.2749 8.29206 22.1916 8.38372 22.0749 8.45039C21.9583 8.51706 21.8166 8.50872 21.6499 8.42539C20.7666 7.97539 19.8539 7.62939 18.9119 7.38739C17.9699 7.14539 17.0076 7.02472 16.0249 7.02539C15.0583 7.02539 14.1083 7.13806 13.1749 7.36339C12.2416 7.58872 11.3499 7.94272 10.4999 8.42539ZM13.4499 25.6254C12.4666 24.5921 11.7123 23.5377 11.1869 22.4624C10.6616 21.3871 10.3993 20.1164 10.3999 18.6504C10.3999 17.1337 10.9499 15.8544 12.0499 14.8124C13.1499 13.7704 14.4749 13.2497 16.0249 13.2504C17.5749 13.2504 18.9083 13.7714 20.0249 14.8134C21.1416 15.8554 21.6999 17.1344 21.6999 18.6504C21.6999 18.8004 21.6539 18.9214 21.5619 19.0134C21.4699 19.1054 21.3493 19.1511 21.1999 19.1504C21.0666 19.1504 20.9499 19.1044 20.8499 19.0124C20.7499 18.9204 20.6999 18.7997 20.6999 18.6504C20.6999 17.4004 20.2373 16.3544 19.3119 15.5124C18.3866 14.6704 17.2909 14.2497 16.0249 14.2504C14.7583 14.2504 13.6706 14.6714 12.7619 15.5134C11.8533 16.3554 11.3993 17.4011 11.3999 18.6504C11.3999 20.0004 11.6333 21.1464 12.0999 22.0884C12.5666 23.0304 13.2499 23.9761 14.1499 24.9254C14.2499 25.0254 14.2999 25.1421 14.2999 25.2754C14.2999 25.4087 14.2499 25.5254 14.1499 25.6254C14.0499 25.7254 13.9333 25.7754 13.7999 25.7754C13.6666 25.7754 13.5499 25.7254 13.4499 25.6254ZM20.9999 23.9254C19.5166 23.9254 18.2289 23.4254 17.1369 22.4254C16.0449 21.4254 15.4993 20.1671 15.4999 18.6504C15.4999 18.5171 15.5459 18.4004 15.6379 18.3004C15.7299 18.2004 15.8506 18.1504 15.9999 18.1504C16.1499 18.1504 16.2709 18.2004 16.3629 18.3004C16.4549 18.4004 16.5006 18.5171 16.4999 18.6504C16.4999 19.9004 16.9499 20.9254 17.8499 21.7254C18.7499 22.5254 19.7999 22.9254 20.9999 22.9254C21.0999 22.9254 21.2416 22.9171 21.4249 22.9004C21.6083 22.8837 21.7999 22.8587 21.9999 22.8254C22.1499 22.7921 22.2793 22.8131 22.3879 22.8884C22.4966 22.9637 22.5673 23.0761 22.5999 23.2254C22.6333 23.3587 22.6083 23.4754 22.5249 23.5754C22.4416 23.6754 22.3333 23.7421 22.1999 23.7754C21.8999 23.8587 21.6376 23.9047 21.4129 23.9134C21.1883 23.9221 21.0506 23.9261 20.9999 23.9254Z" fill="white"/>
</svg>
