<svg width="20" height="21" viewBox="0 0 20 21" fill="none" xmlns="http://www.w3.org/2000/svg">
<path d="M12.1101 20.0834C11.911 20.3293 11.6622 20.4665 11.3636 20.4949C11.0651 20.5233 10.7982 20.4334 10.5629 20.2253L6.41004 16.5924C5.50527 15.7977 4.85384 14.8327 4.45574 13.6975C4.05765 12.5622 3.95812 11.3986 4.15717 10.2065L2.63716 8.87259C2.42002 8.66446 2.29788 8.41376 2.27073 8.12048C2.24359 7.8272 2.32049 7.55758 2.50145 7.3116L2.64612 7.1223H0.809624V9.96046C0.809624 10.484 0.633195 10.9303 0.280336 11.2992C-0.0725235 11.6682 -0.499302 11.8527 -1 11.8527V0.5C-0.499302 0.5 -0.0725235 0.684481 0.280336 1.05344C0.633195 1.4224 0.809624 1.86866 0.809624 2.39221V5.23037H4.14821L5.97575 2.91244C6.1748 2.66647 6.42361 2.52929 6.72218 2.50091C7.02076 2.47253 7.28766 2.5624 7.5229 2.77053L9.01577 4.07609C10.1196 3.64091 11.2415 3.52738 12.3815 3.73551C13.5215 3.94364 14.5439 4.44505 15.4487 5.23974L19.6015 8.87259C19.8368 9.08073 19.968 9.34089 19.9951 9.65309C20.0223 9.96529 19.9363 10.2349 19.7373 10.462L12.1101 20.0834Z" fill="#FFFFFF"/>
</svg>
