<?xml version="1.0" standalone="no"?>
<!DOCTYPE svg PUBLIC "-//W3C//DTD SVG 20010904//EN"
 "http://www.w3.org/TR/2001/REC-SVG-20010904/DTD/svg10.dtd">
<svg version="1.0" xmlns="http://www.w3.org/2000/svg"
 width="257.000000pt" height="257.000000pt" viewBox="0 0 257.000000 257.000000"
 preserveAspectRatio="xMidYMid meet">
<metadata>
Created by potrace 1.14, written by Peter Selinger 2001-2017
</metadata>
<g transform="translate(0.000000,257.000000) scale(0.100000,-0.100000)"
fill="#000000" stroke="none">
<path d="M657 2104 c-1 -2 -28 -4 -59 -5 -68 -3 -179 -51 -219 -95 -30 -33
-119 -183 -119 -200 0 -13 38 -29 155 -67 69 -22 70 -22 71 -58 1 -35 6 -75
20 -144 9 -47 62 -151 93 -182 15 -15 45 -34 67 -42 21 -8 58 -27 81 -42 66
-45 88 -50 253 -55 85 -2 164 -5 175 -7 20 -4 24 -19 26 -87 1 -33 16 -60 34
-60 8 0 15 -6 15 -13 0 -7 14 -26 30 -42 23 -22 30 -38 30 -66 0 -21 5 -41 12
-45 6 -4 142 -8 302 -8 160 -1 296 -4 302 -8 12 -8 94 -128 112 -164 14 -26
20 -66 21 -131 l1 -51 70 -13 c39 -7 70 -16 70 -21 0 -16 17 -8 18 10 3 49 1
566 -3 570 -2 2 -47 4 -100 4 l-96 -1 -26 42 c-14 23 -55 86 -90 139 -34 54
-63 102 -63 107 0 5 19 19 43 30 30 15 51 35 72 70 23 40 34 51 59 53 l30 3 4
95 c2 70 9 106 24 139 l21 43 -61 59 c-34 32 -79 67 -101 78 -36 19 -183 65
-235 75 -11 2 -39 8 -61 14 -22 6 -56 13 -75 15 -19 3 -64 10 -100 15 -98 16
-218 29 -365 38 -106 6 -433 12 -438 8z m1126 -922 c48 -81 87 -152 87 -158 0
-6 -61 -10 -170 -10 -93 -1 -170 3 -170 8 0 4 9 17 19 27 11 11 25 29 31 42
13 23 16 134 5 167 -5 19 20 43 65 64 35 16 48 2 133 -140z"/>
</g>
</svg>
