<svg width="27" height="27" viewBox="0 0 27 27" fill="none" xmlns="http://www.w3.org/2000/svg">
<path d="M25.7098 25.7098C24.4284 26.9912 22.3508 26.9912 21.0694 25.7098L0.961056 5.60144C-0.320352 4.32004 -0.320352 2.24246 0.961056 0.961056C2.24246 -0.320352 4.32003 -0.320352 5.60144 0.961056L25.7098 21.0694C26.9912 22.3508 26.9912 24.4284 25.7098 25.7098ZM5.45312 25.738C4.22048 26.9707 2.22196 26.9707 0.989308 25.738C-0.243341 24.5054 -0.24334 22.5069 0.989308 21.2742L21.2742 0.989307C22.5069 -0.243341 24.5054 -0.243342 25.738 0.989306C26.9707 2.22195 26.9707 4.22047 25.738 5.45312L5.45312 25.738Z" fill="#272727"/>
</svg>
