<svg width="16" height="16" viewBox="0 0 16 16" fill="none" xmlns="http://www.w3.org/2000/svg">
<path fill-rule="evenodd" clip-rule="evenodd" d="M8.00002 2.33268C6.49704 2.33268 5.05561 2.92973 3.99285 3.9925C2.93008 5.05527 2.33302 6.4967 2.33302 7.99968C2.33302 9.50266 2.93008 10.9441 3.99285 12.0069C5.05561 13.0696 6.49704 13.6667 8.00002 13.6667C9.503 13.6667 10.9444 13.0696 12.0072 12.0069C13.07 10.9441 13.667 9.50266 13.667 7.99968C13.667 6.4967 13.07 5.05527 12.0072 3.9925C10.9444 2.92973 9.503 2.33268 8.00002 2.33268ZM0.33302 7.99968C0.321437 6.98553 0.511182 5.97916 0.891264 5.03886C1.27135 4.09856 1.83421 3.24302 2.54726 2.52178C3.26031 1.80054 4.10937 1.22794 5.04527 0.837139C5.98117 0.446343 6.98531 0.245117 7.99952 0.245117C9.01373 0.245117 10.0179 0.446343 10.9538 0.837139C11.8897 1.22794 12.7387 1.80054 13.4518 2.52178C14.1648 3.24302 14.7277 4.09856 15.1078 5.03886C15.4879 5.97916 15.6776 6.98553 15.666 7.99968C15.643 10.0178 14.8251 11.9454 13.3899 13.3644C11.9546 14.7833 10.0178 15.5791 7.99952 15.5791C5.98127 15.5791 4.04442 14.7833 2.60918 13.3644C1.17393 11.9454 0.356069 10.0178 0.33302 7.99968ZM8.00002 4.33268C8.26524 4.33268 8.51959 4.43803 8.70713 4.62557C8.89466 4.81311 9.00002 5.06746 9.00002 5.33268V7.99968C9.00002 8.26489 8.89466 8.51925 8.70713 8.70678C8.51959 8.89432 8.26524 8.99968 8.00002 8.99968C7.7348 8.99968 7.48045 8.89432 7.29291 8.70678C7.10538 8.51925 7.00002 8.26489 7.00002 7.99968V5.33268C7.00002 5.06746 7.10538 4.81311 7.29291 4.62557C7.48045 4.43803 7.7348 4.33268 8.00002 4.33268ZM8.00002 9.66668C7.7348 9.66668 7.48045 9.77203 7.29291 9.95957C7.10538 10.1471 7.00002 10.4015 7.00002 10.6667C7.00002 10.9319 7.10538 11.1862 7.29291 11.3738C7.48045 11.5613 7.7348 11.6667 8.00002 11.6667H8.00702C8.27224 11.6667 8.52659 11.5613 8.71413 11.3738C8.90166 11.1862 9.00702 10.9319 9.00702 10.6667C9.00702 10.4015 8.90166 10.1471 8.71413 9.95957C8.52659 9.77203 8.27224 9.66668 8.00702 9.66668H8.00002Z" fill="#272727"/>
</svg>
