<svg width="32" height="32" viewBox="0 0 32 32" fill="none" xmlns="http://www.w3.org/2000/svg">
<g id="material-symbols:cycle-rounded">
<path id="Vector" d="M5.33324 13.3667C5.33324 15.2556 5.7999 17.0111 6.73324 18.6333C7.66657 20.2556 8.94435 21.5556 10.5666 22.5333C10.8777 22.7333 11.0946 23.0058 11.2172 23.3507C11.3399 23.6956 11.3119 24.0231 11.1332 24.3333C10.9555 24.6667 10.683 24.8836 10.3159 24.984C9.94879 25.0844 9.59901 25.0453 9.26657 24.8667C7.1999 23.6667 5.57768 22.0444 4.3999 20C3.22212 17.9556 2.63324 15.7444 2.63324 13.3667C2.63324 12.7889 2.66657 12.2276 2.73324 11.6827C2.7999 11.1378 2.8999 10.588 3.03324 10.0333L2.63324 10.2667C2.32212 10.4444 1.98879 10.4889 1.63324 10.4C1.27768 10.3111 1.01101 10.1111 0.833236 9.8C0.655458 9.48889 0.616791 9.14978 0.717236 8.78267C0.81768 8.41556 1.02301 8.14356 1.33324 7.96667L5.36657 5.63333C5.67768 5.45556 6.01679 5.41689 6.3839 5.51733C6.75101 5.61778 7.02301 5.82311 7.1999 6.13333L9.53324 10.1333C9.71101 10.4444 9.75012 10.7836 9.65057 11.1507C9.55101 11.5178 9.34524 11.7898 9.03324 11.9667C8.72213 12.1444 8.38301 12.1836 8.0159 12.084C7.64879 11.9844 7.37679 11.7787 7.1999 11.4667L6.06657 9.5C5.82213 10.1222 5.63901 10.7556 5.51724 11.4C5.39546 12.0444 5.33412 12.7 5.33324 13.3667ZM15.9999 2.66667C15.0666 2.66667 14.1555 2.78356 13.2666 3.01733C12.3777 3.25111 11.5332 3.58978 10.7332 4.03333C10.3999 4.21111 10.0497 4.27244 9.68257 4.21733C9.31546 4.16222 9.04346 3.97867 8.86657 3.66667C8.66657 3.31111 8.62213 2.94978 8.73324 2.58267C8.84435 2.21556 9.07768 1.93244 9.43324 1.73333C10.4332 1.15556 11.4835 0.722222 12.5839 0.433333C13.6843 0.144444 14.8115 0 15.9652 0C17.7208 0 19.4043 0.328 21.0159 0.984C22.6275 1.64 24.0666 2.58978 25.3332 3.83333V3.33333C25.3332 2.95556 25.4612 2.63867 25.7172 2.38267C25.9732 2.12667 26.2897 1.99911 26.6666 2C27.0443 2 27.3612 2.128 27.6172 2.384C27.8732 2.64 28.0008 2.95644 27.9999 3.33333V8C27.9999 8.37778 27.8719 8.69467 27.6159 8.95067C27.3599 9.20667 27.0435 9.33422 26.6666 9.33333H21.9999C21.6221 9.33333 21.3052 9.20533 21.0492 8.94933C20.7932 8.69333 20.6657 8.37689 20.6666 8C20.6666 7.62222 20.7946 7.30533 21.0506 7.04933C21.3066 6.79333 21.623 6.66578 21.9999 6.66667H24.2999C23.2777 5.4 22.0443 4.41689 20.5999 3.71733C19.1555 3.01778 17.6221 2.66756 15.9999 2.66667ZM24.0332 20.3667C24.8777 19.3889 25.5279 18.3111 25.9839 17.1333C26.4399 15.9556 26.6675 14.7222 26.6666 13.4333C26.6666 13.0556 26.7835 12.7222 27.0172 12.4333C27.251 12.1444 27.5563 12 27.9332 12C28.311 12 28.6332 12.1444 28.8999 12.4333C29.1666 12.7222 29.2999 13.0556 29.2999 13.4333C29.2777 14.8778 29.0443 16.2724 28.5999 17.6173C28.1555 18.9622 27.4999 20.212 26.6332 21.3667C25.7666 22.5222 24.7386 23.5111 23.5492 24.3333C22.3599 25.1556 21.0657 25.7667 19.6666 26.1667L19.9999 26.3667C20.311 26.5444 20.511 26.8169 20.5999 27.184C20.6888 27.5511 20.6443 27.8898 20.4666 28.2C20.2888 28.5111 20.0221 28.7111 19.6666 28.8C19.311 28.8889 18.9777 28.8444 18.6666 28.6667L14.5999 26.3333C14.2888 26.1556 14.083 25.8831 13.9826 25.516C13.8821 25.1489 13.9212 24.8102 14.0999 24.5L16.4332 20.4667C16.611 20.1556 16.8777 19.9556 17.2332 19.8667C17.5888 19.7778 17.9221 19.8222 18.2332 20C18.5443 20.1778 18.7501 20.4502 18.8506 20.8173C18.951 21.1844 18.9119 21.5231 18.7332 21.8333L17.4999 23.9333C18.7666 23.7556 19.9612 23.3609 21.0839 22.7493C22.2066 22.1378 23.1897 21.3436 24.0332 20.3667Z" fill="#101010"/>
</g>
</svg>
