<svg width="32" height="32" viewBox="0 0 32 32" fill="none" xmlns="http://www.w3.org/2000/svg">
<path d="M28 8.66733C28 11.2407 25.9067 13.334 23.3333 13.334C20.76 13.334 19.3333 9.90732 19.3333 7.33398C20 6.00065 22.3444 10.4199 22 6.66732C21.6556 2.91472 23.9974 1.5337 25.3333 1.33398C25.3333 6.00065 28 6.66732 28 8.66733ZM25.3333 15.7207C24.6667 15.894 24 16.0007 23.3333 16.0007C21.3895 15.9971 19.5263 15.2234 18.1518 13.8489C16.7773 12.4744 16.0035 10.6112 16 8.66733C16 6.70732 16.7733 4.93399 18 3.61399C17.758 3.31738 17.4529 3.07849 17.1069 2.91472C16.761 2.75095 16.3828 2.66643 16 2.66732C14.5333 2.66732 13.3333 3.86732 13.3333 5.33399V5.72066C9.37333 6.89399 6.66667 10.534 6.66667 14.6673V22.6673L4 25.334V26.6673H28V25.334L25.3333 22.6673V15.7207ZM16 30.6673C17.48 30.6673 18.6667 29.4807 18.6667 28.0007H13.3333C13.3333 28.7079 13.6143 29.3862 14.1144 29.8863C14.6145 30.3864 15.2928 30.6673 16 30.6673Z" fill="#272727"/>
</svg>
