<svg width="32" height="32" viewBox="0 0 32 32" fill="none" xmlns="http://www.w3.org/2000/svg">
<path d="M23.9599 16.0398L21.2933 20.6665L24.6666 24.9065L29.3333 16.8265L23.9599 16.0398ZM9.33325 23.9998V20.3865C8.15992 19.8665 7.33325 18.7065 7.33325 17.3331C7.33325 16.5731 7.59992 15.8665 8.03992 15.3331L5.41325 13.7998C4.06659 13.0131 3.59992 11.2931 4.38659 9.94648L6.22659 6.74648C6.60175 6.09983 7.21728 5.62765 7.93905 5.43285C8.66083 5.23804 9.43035 5.3364 10.0799 5.70648L20.9199 11.9998C22.1866 12.7065 22.6266 14.3331 21.8933 15.6131L19.8933 19.0798C19.1599 20.3465 17.5199 20.7865 16.2533 20.0531L13.7466 18.6131C13.4133 19.3998 12.7866 20.0398 11.9999 20.3865V23.9998C11.9999 25.4665 10.7999 26.6665 9.33325 26.6665H2.66659V23.9998H9.33325Z" fill="#272727"/>
</svg>
