<svg width="32" height="32" viewBox="0 0 32 32" fill="none" xmlns="http://www.w3.org/2000/svg">
<path d="M15.9999 9.33301C15.4444 9.33301 14.9719 9.13834 14.5826 8.74901C14.1933 8.35967 13.999 7.88768 13.9999 7.33301C13.9999 6.77745 14.1946 6.30501 14.5839 5.91568C14.9733 5.52634 15.4453 5.33212 15.9999 5.33301C16.5555 5.33301 17.0279 5.52768 17.4173 5.91701C17.8066 6.30634 18.0008 6.77834 17.9999 7.33301C17.9999 7.88856 17.8053 8.36101 17.4159 8.75034C17.0266 9.13968 16.5546 9.3339 15.9999 9.33301ZM15.9999 30.6663C14.1555 30.6663 12.583 30.0161 11.2826 28.7157C9.98214 27.4152 9.33236 25.8432 9.33325 23.9997V7.99968C9.33325 6.15523 9.98348 4.58279 11.2839 3.28234C12.5844 1.9819 14.1564 1.33212 15.9999 1.33301C17.8444 1.33301 19.4168 1.98323 20.7173 3.28368C22.0177 4.58412 22.6675 6.15612 22.6666 7.99968V23.9997C22.6666 25.8441 22.0164 27.4166 20.7159 28.717C19.4155 30.0175 17.8435 30.6672 15.9999 30.6663ZM15.9999 10.6663C16.9333 10.6663 17.7221 10.3441 18.3666 9.69968C19.011 9.05523 19.3333 8.26634 19.3333 7.33301C19.3333 6.39968 19.011 5.61079 18.3666 4.96634C17.7221 4.3219 16.9333 3.99968 15.9999 3.99968C15.0666 3.99968 14.2777 4.3219 13.6333 4.96634C12.9888 5.61079 12.6666 6.39968 12.6666 7.33301C12.6666 8.26634 12.9888 9.05523 13.6333 9.69968C14.2777 10.3441 15.0666 10.6663 15.9999 10.6663ZM13.9999 21.333C14.3777 21.333 14.6946 21.205 14.9506 20.949C15.2066 20.693 15.3341 20.3766 15.3333 19.9997C15.3333 19.6219 15.2053 19.305 14.9493 19.049C14.6933 18.793 14.3768 18.6655 13.9999 18.6663C13.6221 18.6663 13.3053 18.7943 13.0493 19.0503C12.7933 19.3063 12.6657 19.6228 12.6666 19.9997C12.6666 20.3775 12.7946 20.6943 13.0506 20.9503C13.3066 21.2063 13.623 21.3339 13.9999 21.333ZM13.9999 17.333C14.3777 17.333 14.6946 17.205 14.9506 16.949C15.2066 16.693 15.3341 16.3766 15.3333 15.9997C15.3333 15.6219 15.2053 15.305 14.9493 15.049C14.6933 14.793 14.3768 14.6655 13.9999 14.6663C13.6221 14.6663 13.3053 14.7943 13.0493 15.0503C12.7933 15.3063 12.6657 15.6228 12.6666 15.9997C12.6666 16.3775 12.7946 16.6943 13.0506 16.9503C13.3066 17.2063 13.623 17.3339 13.9999 17.333ZM17.9999 17.333C18.3777 17.333 18.6946 17.205 18.9506 16.949C19.2066 16.693 19.3341 16.3766 19.3333 15.9997C19.3333 15.6219 19.2053 15.305 18.9493 15.049C18.6933 14.793 18.3768 14.6655 17.9999 14.6663C17.6221 14.6663 17.3053 14.7943 17.0493 15.0503C16.7933 15.3063 16.6657 15.6228 16.6666 15.9997C16.6666 16.3775 16.7946 16.6943 17.0506 16.9503C17.3066 17.2063 17.623 17.3339 17.9999 17.333ZM17.9999 21.333C18.3777 21.333 18.6946 21.205 18.9506 20.949C19.2066 20.693 19.3341 20.3766 19.3333 19.9997C19.3333 19.6219 19.2053 19.305 18.9493 19.049C18.6933 18.793 18.3768 18.6655 17.9999 18.6663C17.6221 18.6663 17.3053 18.7943 17.0493 19.0503C16.7933 19.3063 16.6657 19.6228 16.6666 19.9997C16.6666 20.3775 16.7946 20.6943 17.0506 20.9503C17.3066 21.2063 17.623 21.3339 17.9999 21.333ZM13.9999 25.333C14.3777 25.333 14.6946 25.205 14.9506 24.949C15.2066 24.693 15.3341 24.3766 15.3333 23.9997C15.3333 23.6219 15.2053 23.305 14.9493 23.049C14.6933 22.793 14.3768 22.6655 13.9999 22.6663C13.6221 22.6663 13.3053 22.7943 13.0493 23.0503C12.7933 23.3063 12.6657 23.6228 12.6666 23.9997C12.6666 24.3775 12.7946 24.6943 13.0506 24.9503C13.3066 25.2063 13.623 25.3339 13.9999 25.333ZM17.9999 25.333C18.3777 25.333 18.6946 25.205 18.9506 24.949C19.2066 24.693 19.3341 24.3766 19.3333 23.9997C19.3333 23.6219 19.2053 23.305 18.9493 23.049C18.6933 22.793 18.3768 22.6655 17.9999 22.6663C17.6221 22.6663 17.3053 22.7943 17.0493 23.0503C16.7933 23.3063 16.6657 23.6228 16.6666 23.9997C16.6666 24.3775 16.7946 24.6943 17.0506 24.9503C17.3066 25.2063 17.623 25.3339 17.9999 25.333Z" fill="#272727"/>
</svg>
