<svg width="32" height="32" viewBox="0 0 32 32" fill="none" xmlns="http://www.w3.org/2000/svg">
<g id="material-symbols:security-rounded">
<path id="Vector" d="M15.9999 26.5329C18.1555 25.8662 19.9555 24.5498 21.3999 22.5835C22.8444 20.6173 23.6888 18.4227 23.9333 15.9995H15.9999V5.49954L7.99992 8.49954V15.3995C7.99992 15.5551 8.02214 15.7551 8.06659 15.9995H15.9999V26.5329ZM15.9999 29.1995C15.8444 29.1995 15.6999 29.1884 15.5666 29.1662C15.4333 29.144 15.2999 29.1107 15.1666 29.0662C12.1666 28.0662 9.7777 26.2164 7.99992 23.5169C6.22214 20.8173 5.33325 17.9115 5.33325 14.7995V8.49954C5.33325 7.94399 5.49459 7.44399 5.81725 6.99954C6.13992 6.5551 6.55636 6.23288 7.06659 6.03288L15.0666 3.03288C15.3777 2.92177 15.6888 2.86621 15.9999 2.86621C16.311 2.86621 16.6221 2.92177 16.9333 3.03288L24.9333 6.03288C25.4444 6.23288 25.8613 6.5551 26.1839 6.99954C26.5066 7.44399 26.6675 7.94399 26.6666 8.49954V14.7995C26.6666 17.9107 25.7777 20.8164 23.9999 23.5169C22.2221 26.2173 19.8333 28.0671 16.8333 29.0662C16.6999 29.1107 16.5666 29.144 16.4333 29.1662C16.2999 29.1884 16.1555 29.1995 15.9999 29.1995Z" fill="#101010"/>
</g>
</svg>
