<svg width="20" height="22" viewBox="0 0 20 22" fill="none" xmlns="http://www.w3.org/2000/svg">
<path d="M8.66642 5.66675L2.91642 11.3334C2.64781 11.602 2.32378 11.7316 1.94434 11.7222C1.56461 11.713 1.24045 11.5741 0.971835 11.3055C0.703502 11.0372 0.569336 10.7131 0.569336 10.3334C0.569336 9.95369 0.703502 9.62966 0.971835 9.36133L9.05517 1.27799C9.33295 1.00022 9.65711 0.861328 10.0277 0.861328C10.3979 0.861328 10.722 1.00022 10.9998 1.27799L19.0831 9.36133C19.3517 9.62966 19.486 9.95369 19.486 10.3334C19.486 10.7131 19.3517 11.0372 19.0831 11.3055C18.8145 11.5741 18.4904 11.7084 18.111 11.7084C17.7313 11.7084 17.4071 11.5741 17.1385 11.3055L11.4443 5.61133V20.5001C11.4443 20.8981 11.3124 21.2291 11.0485 21.493C10.7846 21.7569 10.4535 21.8888 10.0552 21.8888C9.65711 21.8888 9.32614 21.7569 9.06225 21.493C8.79836 21.2291 8.66642 20.8981 8.66642 20.5001V5.66675Z" fill="#1C1B1F"/>
</svg>
