<svg width="22" height="22" viewBox="0 0 22 22" fill="none" xmlns="http://www.w3.org/2000/svg">
<path d="M11.0003 13.3337L2.83366 21.5003C2.5281 21.8059 2.13921 21.9587 1.66699 21.9587C1.19477 21.9587 0.805881 21.8059 0.500326 21.5003C0.19477 21.1948 0.0419922 20.8059 0.0419922 20.3337C0.0419922 19.8614 0.19477 19.4725 0.500326 19.167L8.66699 11.0003L0.500326 2.83366C0.19477 2.5281 0.0419922 2.13921 0.0419922 1.66699C0.0419922 1.19477 0.19477 0.805881 0.500326 0.500326C0.805881 0.19477 1.19477 0.0419922 1.66699 0.0419922C2.13921 0.0419922 2.5281 0.19477 2.83366 0.500326L11.0003 8.66699L19.167 0.500326C19.4725 0.19477 19.8614 0.0419922 20.3337 0.0419922C20.8059 0.0419922 21.1948 0.19477 21.5003 0.500326C21.8059 0.805881 21.9587 1.19477 21.9587 1.66699C21.9587 2.13921 21.8059 2.5281 21.5003 2.83366L13.3337 11.0003L21.5003 19.167C21.8059 19.4725 21.9587 19.8614 21.9587 20.3337C21.9587 20.8059 21.8059 21.1948 21.5003 21.5003C21.1948 21.8059 20.8059 21.9587 20.3337 21.9587C19.8614 21.9587 19.4725 21.8059 19.167 21.5003L11.0003 13.3337Z" fill="#1C1B1F"/>
</svg>
