<svg width="13" height="22" viewBox="0 0 13 22" fill="none" xmlns="http://www.w3.org/2000/svg">
<path d="M5.31898 16.1403C4.7667 16.1403 4.31349 15.6916 4.36407 15.1417C4.39515 14.8037 4.4423 14.4722 4.50552 14.1471C4.63944 13.4977 4.85467 12.8983 5.15121 12.3488C5.40949 11.8193 5.69647 11.3996 6.01214 11.0899C6.32781 10.7702 6.68175 10.4555 7.07395 10.1458C7.46615 9.82607 7.9014 9.40145 8.37969 8.87193C8.77189 8.42234 9.03017 7.97775 9.15452 7.53815C9.27888 7.08856 9.34106 6.60899 9.34106 6.09945C9.34106 5.76975 9.30758 5.46004 9.24062 5.1703C9.17366 4.88056 9.05408 4.63079 8.8819 4.42098C8.61405 4.05132 8.26968 3.79155 7.84878 3.64169C7.42789 3.48183 6.97829 3.40191 6.5 3.40191C6.1078 3.40191 5.72995 3.45686 5.36645 3.56676C5.01251 3.66667 4.71118 3.82652 4.46247 4.04632C4.1755 4.2861 3.96505 4.58084 3.83113 4.93052C3.8129 4.9781 3.79601 5.02633 3.78044 5.0752C3.61014 5.60994 3.18274 6.08447 2.62154 6.08447H1.10032C0.510377 6.08447 0.042486 5.57382 0.17466 4.99888C0.310707 4.40709 0.510765 3.84479 0.774835 3.31199C1.2053 2.45277 1.76968 1.76839 2.46799 1.25886C3.01324 0.839237 3.62546 0.524522 4.30464 0.314714C4.99338 0.104905 5.68212 0 6.37086 0C7.4231 0 8.41317 0.169846 9.34106 0.509537C10.2785 0.849228 11.0581 1.40872 11.6799 2.18801C12.1104 2.69755 12.4356 3.28701 12.6556 3.9564C12.8852 4.62579 13 5.30518 13 5.99455C13 7.02362 12.7848 7.96276 12.3543 8.81199C11.9334 9.66122 11.3977 10.4455 10.7472 11.1649C10.4411 11.5045 10.1494 11.8043 9.87196 12.064C9.59455 12.3238 9.33628 12.5786 9.09713 12.8283C8.86755 13.0681 8.67623 13.3229 8.52318 13.5926C8.25533 14.0622 8.0975 14.4619 8.04967 14.7916C8.03426 14.8946 8.02133 15.0111 8.01088 15.141C7.96664 15.6916 7.53021 16.1403 6.97792 16.1403H5.31898ZM5.34768 22C4.7954 22 4.34768 21.5523 4.34768 21V19.0286C4.34768 18.4763 4.7954 18.0286 5.34768 18.0286H6.97792C7.53021 18.0286 7.97792 18.4763 7.97792 19.0286V21C7.97792 21.5523 7.53021 22 6.97792 22H5.34768Z" fill="#272727"/>
</svg>
