<svg width="40" height="41" viewBox="0 0 40 41" fill="none" xmlns="http://www.w3.org/2000/svg">
<path d="M19.5771 40.5L18.6269 39.996C7.58877 34.1105 1 24.0195 1 12.9878V0.5H38.1429V12.9878C38.1429 24.0139 31.5541 34.1105 20.5159 39.996L19.5657 40.5H19.5771ZM2.94886 2.38024V12.9878C2.94886 22.2388 10.4223 32.8183 19.5771 38.0598C28.732 32.8183 36.2054 22.2332 36.2054 12.9878V2.38024H19.5771H2.94886Z" fill="#252525"/>
<path fill-rule="evenodd" clip-rule="evenodd" d="M37 12.5833V2H19.5V38C30.4 32.4607 37 22.8794 37 12.5833Z" fill="white"/>
<path fill-rule="evenodd" clip-rule="evenodd" d="M2 12.5833V2H19.5V38C8.60003 32.4607 2 22.8794 2 12.5833Z" fill="url(#paint0_linear_5519_3825)"/>
<path d="M19.2144 27.5714C24.8951 27.5714 29.5001 22.9664 29.5001 17.2857C29.5001 11.6051 24.8951 7 19.2144 7C13.5338 7 8.92871 11.6051 8.92871 17.2857C8.92871 22.9664 13.5338 27.5714 19.2144 27.5714Z" fill="#252525" stroke="white" stroke-width="2"/>
<ellipse cx="22.5993" cy="13.5412" rx="1.85714" ry="1.85714" fill="white"/>
<defs>
<linearGradient id="paint0_linear_5519_3825" x1="2" y1="19.9972" x2="37" y2="19.9972" gradientUnits="userSpaceOnUse">
<stop offset="0.5" stop-color="#252525"/>
<stop offset="1"/>
</linearGradient>
</defs>
</svg>
