<svg width="24" height="24" viewBox="0 0 24 24" fill="none" xmlns="http://www.w3.org/2000/svg">
<path d="M21 6.50001C21 8.43001 19.43 10 17.5 10C15.57 10 14.5 7.43 14.5 5.5C15 4.5 16.7583 7.81445 16.5 5C16.2417 2.18555 17.998 1.14979 19 1C19 4.5 21 5 21 6.50001ZM19 11.79C18.5 11.92 18 12 17.5 12C16.0421 11.9974 14.6447 11.4171 13.6138 10.3862C12.583 9.3553 12.0026 7.95788 12 6.50001C12 5.03001 12.58 3.70001 13.5 2.71001C13.3185 2.48755 13.0897 2.30838 12.8302 2.18555C12.5707 2.06272 12.2871 1.99934 12 2.00001C10.9 2.00001 10 2.90001 10 4.00001V4.29001C7.03 5.17001 5 7.90001 5 11V17L3 19V20H21V19L19 17V11.79ZM12 23C13.11 23 14 22.11 14 21H10C10 21.5304 10.2107 22.0391 10.5858 22.4142C10.9609 22.7893 11.4696 23 12 23Z" fill="white"/>
</svg>
