<svg width="40" height="40" viewBox="0 0 40 40" fill="none" xmlns="http://www.w3.org/2000/svg">
<mask id="mask0_5165_2057" style="mask-type:alpha" maskUnits="userSpaceOnUse" x="0" y="0" width="40" height="40">
<rect width="40" height="40" fill="#D9D9D9"/>
</mask>
<g mask="url(#mask0_5165_2057)">
<path d="M16.9481 26.4062C17.6359 27.1094 18.5025 27.4398 19.5479 27.3977C20.5933 27.3555 21.3499 26.9687 21.8176 26.2375L29.0941 15.0578C29.3051 14.7203 29.28 14.418 29.0186 14.1508C28.7572 13.8836 28.4615 13.8579 28.1314 14.0736L17.1957 21.5125C16.4804 22.0187 16.0884 22.7852 16.0196 23.8117C15.9508 24.8383 16.2603 25.7031 16.9481 26.4062ZM7.78693 34C7.25514 34 6.7576 33.8758 6.29431 33.6275C5.8313 33.3789 5.476 33.0155 5.2284 32.5374C4.51311 31.1969 3.96289 29.8025 3.57773 28.354C3.19258 26.9056 3 25.422 3 23.9033C3 21.5689 3.4333 19.3751 4.2999 17.322C5.1665 15.2689 6.3426 13.4782 7.82819 11.9499C9.31379 10.4218 11.0562 9.21484 13.0554 8.32891C15.0544 7.44297 17.1865 7 19.4518 7C21.7258 7 23.867 7.44058 25.8753 8.32174C27.8836 9.20317 29.6353 10.4055 31.1302 11.9288C32.6249 13.4523 33.8079 15.2336 34.6791 17.2727C35.5501 19.3117 35.9903 21.4938 35.9997 23.8189C36.0087 25.3469 35.8321 26.8492 35.4698 28.3258C35.1078 29.8023 34.5507 31.2062 33.7985 32.5374C33.5327 33.0155 33.1682 33.3789 32.7049 33.6275C32.2419 33.8758 31.7445 34 31.2127 34H7.78693Z" fill="#1C1B1F"/>
</g>
</svg>
