<svg width="32" height="32" viewBox="0 0 32 32" fill="none" xmlns="http://www.w3.org/2000/svg" role="img" aria-labelledby="title  desc">
<title id="title">Сигнализация</title>
<desc id="desc">Система имеет функцию оповещения</desc>
<circle cx="16" cy="16" r="16" fill="#272727"/>
<path d="M25 10.5C25 12.43 23.43 14 21.5 14C19.57 14 18.5 11.43 18.5 9.5C19 8.5 20.7583 11.8145 20.5 9C20.2417 6.18555 21.998 5.14979 23 5C23 8.5 25 9 25 10.5ZM23 15.79C22.5 15.92 22 16 21.5 16C20.0421 15.9974 18.6447 15.4171 17.6138 14.3862C16.583 13.3553 16.0026 11.9579 16 10.5C16 9.03001 16.58 7.70001 17.5 6.71001C17.3185 6.48755 17.0897 6.30838 16.8302 6.18555C16.5707 6.06272 16.2871 5.99934 16 6.00001C14.9 6.00001 14 6.90001 14 8.00001V8.29001C11.03 9.17001 9 11.9 9 15V21L7 23V24H25V23L23 21V15.79ZM16 27C17.11 27 18 26.11 18 25H14C14 25.5304 14.2107 26.0391 14.5858 26.4142C14.9609 26.7893 15.4696 27 16 27Z" fill="white"/>
</svg>
