<svg width="40" height="40" viewBox="0 0 40 40" fill="none" xmlns="http://www.w3.org/2000/svg">
<rect x="3.79883" y="3.72949" width="32" height="32" rx="16" fill="#DEF6F7"/>
<mask id="mask0_7106_3221" style="mask-type:alpha" maskUnits="userSpaceOnUse" x="0" y="0" width="40" height="40">
<rect width="40" height="40" fill="#D9D9D9"/>
</mask>
<g mask="url(#mask0_7106_3221)">
<path d="M9.41634 29.083C11.0552 27.9072 12.7404 26.9975 14.4718 26.3538C16.2034 25.7102 18.0461 25.3884 19.9997 25.3884C21.9533 25.3884 23.8005 25.7102 25.5413 26.3538C27.2822 26.9975 28.972 27.9072 30.6109 29.083C31.7498 27.7033 32.5808 26.2634 33.1038 24.7634C33.6269 23.2634 33.8884 21.6755 33.8884 19.9997C33.8884 16.083 32.5529 12.789 29.8818 10.1176C27.2104 7.44648 23.9163 6.11092 19.9997 6.11092C16.083 6.11092 12.789 7.44648 10.1176 10.1176C7.44648 12.789 6.11092 16.083 6.11092 19.9997C6.11092 21.6755 6.37704 23.2634 6.90926 24.7634C7.44176 26.2634 8.27745 27.7033 9.41634 29.083ZM19.9947 21.3884C18.3777 21.3884 17.0159 20.8336 15.9093 19.7238C14.8029 18.6138 14.2497 17.2504 14.2497 15.6334C14.2497 14.0165 14.8047 12.6548 15.9147 11.5484C17.0244 10.4418 18.3877 9.88843 20.0047 9.88843C21.6216 9.88843 22.9834 10.4434 24.0901 11.5534C25.1965 12.6634 25.7497 14.0269 25.7497 15.6438C25.7497 17.2608 25.1947 18.6225 24.0847 19.7288C22.975 20.8352 21.6116 21.3884 19.9947 21.3884ZM20.0126 36.6663C17.717 36.6663 15.5554 36.2288 13.5276 35.3538C11.4998 34.4788 9.7312 33.2868 8.22176 31.7776C6.71259 30.2681 5.52051 28.5018 4.64551 26.4784C3.77051 24.4551 3.33301 22.293 3.33301 19.9922C3.33301 17.6916 3.77051 15.532 4.64551 13.5134C5.52051 11.4951 6.71259 9.7312 8.22176 8.22176C9.7312 6.71259 11.4976 5.52051 13.5209 4.64551C15.5443 3.77051 17.7063 3.33301 20.0072 3.33301C22.3077 3.33301 24.4673 3.77051 26.4859 4.64551C28.5043 5.52051 30.2681 6.71259 31.7776 8.22176C33.2868 9.7312 34.4788 11.4954 35.3538 13.5143C36.2288 15.5334 36.6663 17.6909 36.6663 19.9868C36.6663 22.2823 36.2288 24.444 35.3538 26.4718C34.4788 28.4995 33.2868 30.2681 31.7776 31.7776C30.2681 33.2868 28.504 34.4788 26.4851 35.3538C24.4659 36.2288 22.3084 36.6663 20.0126 36.6663ZM19.9997 33.8884C21.5088 33.8884 22.9672 33.6686 24.3747 33.2288C25.7822 32.7891 27.1387 32.0645 28.4443 31.0551C27.1387 30.1201 25.7776 29.4048 24.3609 28.9093C22.9443 28.414 21.4905 28.1663 19.9997 28.1663C18.5088 28.1663 17.0551 28.414 15.6384 28.9093C14.2218 29.4048 12.8606 30.1201 11.5551 31.0551C12.8606 32.0645 14.2172 32.7891 15.6247 33.2288C17.0322 33.6686 18.4905 33.8884 19.9997 33.8884ZM19.9997 18.6109C20.87 18.6109 21.5829 18.3331 22.1384 17.7776C22.694 17.222 22.9718 16.509 22.9718 15.6384C22.9718 14.7681 22.694 14.0552 22.1384 13.4997C21.5829 12.9441 20.87 12.6663 19.9997 12.6663C19.1294 12.6663 18.4165 12.9441 17.8609 13.4997C17.3054 14.0552 17.0276 14.7681 17.0276 15.6384C17.0276 16.509 17.3054 17.222 17.8609 17.7776C18.4165 18.3331 19.1294 18.6109 19.9997 18.6109Z" fill="#686868"/>
</g>
<mask id="mask1_7106_3221" style="mask-type:alpha" maskUnits="userSpaceOnUse" x="0" y="0" width="40" height="40">
<rect width="40" height="40" fill="#D9D9D9"/>
</mask>
<g mask="url(#mask1_7106_3221)">
<path d="M9.41634 29.083C11.0552 27.9811 12.7358 27.1362 14.458 26.5484C16.1802 25.9604 18.0275 25.6663 19.9997 25.6663C21.9719 25.6663 23.8237 25.9604 25.5551 26.5484C27.2868 27.1362 28.972 27.9811 30.6109 29.083C31.7498 27.7033 32.5808 26.2634 33.1038 24.7634C33.6269 23.2634 33.8884 21.6755 33.8884 19.9997C33.8884 16.083 32.5529 12.789 29.8818 10.1176C27.2104 7.44648 23.9163 6.11092 19.9997 6.11092C16.083 6.11092 12.789 7.44648 10.1176 10.1176C7.44648 12.789 6.11092 16.083 6.11092 19.9997C6.11092 21.6755 6.37704 23.2634 6.90926 24.7634C7.44176 26.2634 8.27745 27.7033 9.41634 29.083ZM19.9947 21.3884C18.3777 21.3884 17.0159 20.8336 15.9093 19.7238C14.8029 18.6138 14.2497 17.2504 14.2497 15.6334C14.2497 14.0165 14.8047 12.6548 15.9147 11.5484C17.0244 10.4418 18.3877 9.88843 20.0047 9.88843C21.6216 9.88843 22.9834 10.4434 24.0901 11.5534C25.1965 12.6634 25.7497 14.0269 25.7497 15.6438C25.7497 17.2608 25.1947 18.6225 24.0847 19.7288C22.975 20.8352 21.6116 21.3884 19.9947 21.3884ZM19.9884 36.6663C17.6801 36.6663 15.5109 36.2288 13.4809 35.3538C11.4506 34.4788 9.68468 33.2868 8.18301 31.7776C6.68106 30.2681 5.49731 28.5011 4.63176 26.4763C3.76592 24.4516 3.33301 22.2882 3.33301 19.9859C3.33301 17.6837 3.77051 15.5201 4.64551 13.4951C5.52051 11.4704 6.71259 9.70801 8.22176 8.20801C9.7312 6.70801 11.4983 5.52051 13.523 4.64551C15.5477 3.77051 17.7112 3.33301 20.0134 3.33301C22.3156 3.33301 24.4793 3.77051 26.5043 4.64551C28.529 5.52051 30.2913 6.70801 31.7913 8.20801C33.2913 9.70801 34.4788 11.4719 35.3538 13.4997C36.2288 15.5275 36.6663 17.6916 36.6663 19.9922C36.6663 22.293 36.2288 24.4551 35.3538 26.4784C34.4788 28.5018 33.2913 30.2681 31.7913 31.7776C30.2913 33.2868 28.5262 34.4788 26.4959 35.3538C24.4659 36.2288 22.2968 36.6663 19.9884 36.6663Z" fill="#686868"/>
</g>
</svg>
