<svg width="40" height="41" viewBox="0 0 40 41" fill="none" xmlns="http://www.w3.org/2000/svg">
<mask id="mask0_5675_7279" style="mask-type:alpha" maskUnits="userSpaceOnUse" x="0" y="0" width="40" height="41">
<rect y="0.5" width="40" height="40" fill="#D9D9D9"/>
</mask>
<g mask="url(#mask0_5675_7279)">
<path d="M19.9993 22.8334L11.8327 31.0001C11.5271 31.3056 11.1382 31.4584 10.666 31.4584C10.1938 31.4584 9.8049 31.3056 9.49935 31.0001C9.19379 30.6945 9.04102 30.3056 9.04102 29.8334C9.04102 29.3612 9.19379 28.9723 9.49935 28.6667L17.666 20.5001L9.49935 12.3334C9.19379 12.0279 9.04102 11.639 9.04102 11.1667C9.04102 10.6945 9.19379 10.3056 9.49935 10.0001C9.8049 9.69453 10.1938 9.54175 10.666 9.54175C11.1382 9.54175 11.5271 9.69453 11.8327 10.0001L19.9993 18.1667L28.166 10.0001C28.4716 9.69453 28.8605 9.54175 29.3327 9.54175C29.8049 9.54175 30.1938 9.69453 30.4993 10.0001C30.8049 10.3056 30.9577 10.6945 30.9577 11.1667C30.9577 11.639 30.8049 12.0279 30.4993 12.3334L22.3327 20.5001L30.4993 28.6667C30.8049 28.9723 30.9577 29.3612 30.9577 29.8334C30.9577 30.3056 30.8049 30.6945 30.4993 31.0001C30.1938 31.3056 29.8049 31.4584 29.3327 31.4584C28.8605 31.4584 28.4716 31.3056 28.166 31.0001L19.9993 22.8334Z" fill="#1C1B1F"/>
</g>
</svg>
