<svg width="25" height="25" viewBox="0 0 25 25" fill="none" xmlns="http://www.w3.org/2000/svg">
<mask id="mask0_5172_10480" style="mask-type:alpha" maskUnits="userSpaceOnUse" x="0" y="0" width="25" height="25">
<rect x="0.5" y="0.5" width="24" height="24" fill="#D9D9D9"/>
</mask>
<g mask="url(#mask0_5172_10480)">
<path d="M4.5 20.5C3.95 20.5 3.47917 20.3042 3.0875 19.9125C2.69583 19.5208 2.5 19.05 2.5 18.5V6.5C2.5 5.95 2.69583 5.47917 3.0875 5.0875C3.47917 4.69583 3.95 4.5 4.5 4.5H20.5C21.05 4.5 21.5208 4.69583 21.9125 5.0875C22.3042 5.47917 22.5 5.95 22.5 6.5V18.5C22.5 19.05 22.3042 19.5208 21.9125 19.9125C21.5208 20.3042 21.05 20.5 20.5 20.5H4.5ZM12.5 13.325C12.5833 13.325 12.6708 13.3125 12.7625 13.2875C12.8542 13.2625 12.9417 13.225 13.025 13.175L20.1 8.75C20.2333 8.66667 20.3333 8.5625 20.4 8.4375C20.4667 8.3125 20.5 8.175 20.5 8.025C20.5 7.69167 20.3583 7.44167 20.075 7.275C19.7917 7.10833 19.5 7.11667 19.2 7.3L12.5 11.5L5.8 7.3C5.5 7.11667 5.20833 7.1125 4.925 7.2875C4.64167 7.4625 4.5 7.70833 4.5 8.025C4.5 8.19167 4.53333 8.3375 4.6 8.4625C4.66667 8.5875 4.76667 8.68333 4.9 8.75L11.975 13.175C12.0583 13.225 12.1458 13.2625 12.2375 13.2875C12.3292 13.3125 12.4167 13.325 12.5 13.325Z" fill="#1C1B1F"/>
</g>
</svg>
