<svg width="33" height="33" viewBox="0 0 33 33" fill="none" xmlns="http://www.w3.org/2000/svg">
<g clip-path="url(#clip0_5249_6663)">
<path d="M16.5 0.5C7.66353 0.5 0.5 7.66353 0.5 16.5C0.5 25.3365 7.66353 32.5 16.5 32.5C25.3365 32.5 32.5 25.3365 32.5 16.5C32.5 7.66353 25.3365 0.5 16.5 0.5ZM25.5003 7.9364L21.9179 24.7605C21.8507 25.0909 21.4744 25.2528 21.1885 25.0737L15.6794 21.4199L12.7816 24.1165C12.5237 24.3371 12.1243 24.2297 12.012 23.9091L10.1252 17.9585L5.05873 15.8806C4.67002 15.7034 4.67554 15.0844 5.07398 14.9296L24.852 7.39001C25.2083 7.25178 25.5762 7.56197 25.5003 7.9364Z" fill="#686868"/>
<path d="M13.0598 22.5L13.388 19.3872L22.5 10.5L11.5 17.7081L13.0598 22.5Z" fill="#686868"/>
</g>
<defs>
<clipPath id="clip0_5249_6663">
<rect width="32" height="32" fill="white" transform="translate(0.5 0.5)"/>
</clipPath>
</defs>
</svg>
