<svg width="33" height="33" viewBox="0 0 33 33" fill="none" xmlns="http://www.w3.org/2000/svg">
<g clip-path="url(#clip0_5249_6668)">
<path d="M17.5032 7.5C13.0903 7.5 9.50161 11.0871 9.5 15.4965C9.49936 17.0077 9.92234 18.479 10.723 19.7523L10.9131 20.0548L10.1051 23.0059L13.1327 22.2119L13.425 22.3853C14.6532 23.1141 16.0612 23.4994 17.4968 23.5H17.5C21.9093 23.5 25.4981 19.9126 25.5 15.5029C25.501 13.366 24.6695 11.3568 23.159 9.84529C21.6485 8.33345 19.6399 7.50064 17.5032 7.5ZM22.209 18.9346C22.0086 19.4961 21.0476 20.0089 20.5858 20.0776C20.1715 20.1395 19.647 20.1652 19.0712 19.9822C18.722 19.8715 18.274 19.7235 17.7001 19.4759C15.2871 18.4347 13.7115 16.0063 13.5914 15.8461C13.4713 15.6856 12.6092 14.5426 12.6092 13.3592C12.6092 12.1758 13.2304 11.5944 13.451 11.3536C13.6713 11.1128 13.9321 11.0528 14.0924 11.0528C14.2527 11.0528 14.4132 11.0544 14.5533 11.0611C14.701 11.0685 14.8992 11.0053 15.0944 11.4737C15.2949 11.9553 15.776 13.1383 15.836 13.2587C15.8961 13.3791 15.9362 13.5194 15.8559 13.6799C15.7756 13.8402 15.7358 13.9406 15.6154 14.0809C15.4949 14.2212 15.3629 14.3943 15.2547 14.5022C15.1343 14.6219 15.009 14.7523 15.1494 14.9927C15.2897 15.2335 15.7724 16.0207 16.4874 16.658C17.4059 17.477 18.1809 17.731 18.4214 17.8514C18.662 17.9718 18.8023 17.9516 18.9424 17.7914C19.0827 17.6308 19.5436 17.0892 19.7039 16.8487C19.8641 16.6083 20.0244 16.6481 20.245 16.7283C20.4654 16.8086 21.6479 17.39 21.8885 17.5104C22.129 17.6308 22.2893 17.6909 22.3493 17.7914C22.4094 17.8915 22.4094 18.3731 22.209 18.9346Z" fill="#686868"/>
<path d="M16.5 0.5C7.66353 0.5 0.5 7.66353 0.5 16.5C0.5 25.3365 7.66353 32.5 16.5 32.5C25.3365 32.5 32.5 25.3365 32.5 16.5C32.5 7.66353 25.3365 0.5 16.5 0.5ZM17.1483 25.0876C17.148 25.0876 17.1486 25.0876 17.1483 25.0876H17.1444C15.5169 25.087 13.9179 24.6788 12.4977 23.904L7.34296 25.2563L8.72258 20.2174C7.87151 18.7427 7.42375 17.0698 7.42472 15.3563C7.42635 9.99481 11.7888 5.63303 17.1483 5.63303C19.7495 5.634 22.1911 6.64666 24.0269 8.48475C25.8628 10.3225 26.8735 12.7657 26.8722 15.364C26.8699 20.7255 22.5075 25.0876 17.1483 25.0876Z" fill="#686868"/>
</g>
<defs>
<clipPath id="clip0_5249_6668">
<rect width="32" height="32" fill="white" transform="translate(0.5 0.5)"/>
</clipPath>
</defs>
</svg>
