<svg width="32" height="32" viewBox="0 0 32 32" fill="none" xmlns="http://www.w3.org/2000/svg">
<path d="M10.6668 28V26.6667L13.3334 24H5.33342C4.60008 24 3.97208 23.7387 3.44942 23.216C2.92675 22.6933 2.66586 22.0658 2.66675 21.3333V6.66667C2.66675 5.93334 2.92808 5.30534 3.45075 4.78267C3.97342 4.26 4.60097 3.99911 5.33342 4H26.6668C27.4001 4 28.0281 4.26134 28.5508 4.784C29.0734 5.30667 29.3343 5.93422 29.3334 6.66667V21.3333C29.3334 22.0667 29.0721 22.6947 28.5494 23.2173C28.0268 23.74 27.3992 24.0009 26.6668 24H18.6668L21.3334 26.6667V28H10.6668Z" fill="#101010"/>
</svg>
