<svg width="32" height="32" viewBox="0 0 32 32" fill="none" xmlns="http://www.w3.org/2000/svg">
<path d="M5.33334 28C4.95556 28 4.63867 27.872 4.38267 27.616C4.12667 27.36 3.99912 27.0436 4 26.6667V22.6667C4 22.2889 4.128 21.972 4.384 21.716C4.64 21.46 4.95645 21.3324 5.33334 21.3333H9.33334L14.6667 16V11.7333C13.8667 11.4444 13.2222 10.9609 12.7333 10.2827C12.2444 9.60444 12 8.84356 12 8C12 6.88889 12.3889 5.94444 13.1667 5.16667C13.9444 4.38889 14.8889 4 16 4C17.1111 4 18.0556 4.38889 18.8333 5.16667C19.6111 5.94444 20 6.88889 20 8C20 8.84444 19.7556 9.60578 19.2667 10.284C18.7778 10.9622 18.1333 11.4453 17.3333 11.7333V16L22.6667 21.3333H26.6667C27.0444 21.3333 27.3613 21.4613 27.6173 21.7173C27.8733 21.9733 28.0009 22.2898 28 22.6667V26.6667C28 27.0444 27.872 27.3613 27.616 27.6173C27.36 27.8733 27.0436 28.0009 26.6667 28H22.6667C22.2889 28 21.972 27.872 21.716 27.616C21.46 27.36 21.3324 27.0436 21.3333 26.6667V23.9333L16 18.6L10.6667 23.9333V26.6667C10.6667 27.0444 10.5387 27.3613 10.2827 27.6173C10.0267 27.8733 9.71023 28.0009 9.33334 28H5.33334Z" fill="#101010"/>
</svg>
