<?xml version="1.0" standalone="no"?>
<!DOCTYPE svg PUBLIC "-//W3C//DTD SVG 20010904//EN"
 "http://www.w3.org/TR/2001/REC-SVG-20010904/DTD/svg10.dtd">
<svg version="1.0" xmlns="http://www.w3.org/2000/svg"
 width="700.000000pt" height="700.000000pt" viewBox="0 0 700.000000 700.000000"
 preserveAspectRatio="xMidYMid meet">
<metadata>
Created by potrace 1.14, written by Peter Selinger 2001-2017
</metadata>
<g transform="translate(0.000000,700.000000) scale(0.100000,-0.100000)"
fill="#000000" stroke="none">
<path d="M180 5796 c0 -1190 3 -1322 35 -1581 200 -1601 1201 -3042 2757
-3968 156 -93 428 -240 442 -240 15 0 316 165 459 252 489 295 885 607 1272
1002 770 786 1267 1740 1435 2754 64 386 63 360 67 1733 l4 1252 -3235 0
-3236 0 0 -1204z m6130 864 c0 -6 35 -10 86 -10 l85 0 -4 -1067 c-4 -1156 -5
-1167 -62 -1503 -240 -1390 -1170 -2651 -2580 -3497 -134 -80 -409 -233 -421
-233 -2 0 -4 394 -4 875 l0 875 -104 0 c-715 0 -1385 422 -1707 1075 -265 537
-268 1147 -8 1685 319 662 994 1090 1719 1090 l100 0 0 350 0 350 -1450 0
c-960 0 -1450 3 -1450 10 0 7 973 10 2900 10 1927 0 2900 -3 2900 -10z"/>
<path d="M3160 5589 c-418 -47 -795 -251 -1052 -569 -437 -538 -474 -1286 -93
-1865 110 -166 274 -330 440 -440 477 -314 1080 -348 1585 -89 154 78 268 162
395 289 127 127 211 241 289 395 231 450 231 980 0 1430 -30 60 -83 149 -117
197 -79 113 -257 291 -370 370 -312 220 -709 324 -1077 282z m844 -728 c75
-37 128 -91 165 -170 22 -47 26 -70 26 -141 0 -76 -4 -93 -33 -152 -38 -77
-92 -130 -171 -167 -47 -22 -70 -26 -141 -26 -71 0 -94 4 -141 26 -79 37 -133
90 -171 167 -29 59 -33 76 -33 152 0 71 4 94 26 140 87 186 293 260 473 171z"/>
</g>
</svg>
