<svg width="32" height="32" viewBox="0 0 32 32" fill="none" xmlns="http://www.w3.org/2000/svg">
<circle cx="16" cy="16" r="16" fill="#272727"/>
<path d="M22.97 16.0306L20.97 19.5006L23.5 22.6806L27 16.6206L22.97 16.0306ZM12 22.0006V19.2906C11.12 18.9006 10.5 18.0306 10.5 17.0006C10.5 16.4306 10.7 15.9006 11.03 15.5006L9.06 14.3506C8.05 13.7606 7.7 12.4706 8.29 11.4606L9.67 9.06059C9.95137 8.5756 10.413 8.22147 10.9544 8.07537C11.4957 7.92926 12.0728 8.00303 12.56 8.28059L20.69 13.0006C21.64 13.5306 21.97 14.7506 21.42 15.7106L19.92 18.3106C19.37 19.2606 18.14 19.5906 17.19 19.0406L15.31 17.9606C15.06 18.5506 14.59 19.0306 14 19.2906V22.0006C14 23.1006 13.1 24.0006 12 24.0006H7V22.0006H12Z" fill="white"/>
</svg>
