<svg width="32" height="32" viewBox="0 0 32 32" fill="none" xmlns="http://www.w3.org/2000/svg">
<circle cx="16" cy="16" r="16" fill="#272727"/>
<path d="M16 11C15.5833 11 15.229 10.854 14.937 10.562C14.645 10.27 14.4993 9.916 14.5 9.5C14.5 9.08333 14.646 8.729 14.938 8.437C15.23 8.145 15.584 7.99933 16 8C16.4167 8 16.771 8.146 17.063 8.438C17.355 8.73 17.5007 9.084 17.5 9.5C17.5 9.91667 17.354 10.271 17.062 10.563C16.77 10.855 16.416 11.0007 16 11ZM16 27C14.6167 27 13.4373 26.5123 12.462 25.537C11.4867 24.5617 10.9993 23.3827 11 22V10C11 8.61667 11.4877 7.43733 12.463 6.462C13.4383 5.48667 14.6173 4.99933 16 5C17.3833 5 18.5627 5.48767 19.538 6.463C20.5133 7.43833 21.0007 8.61733 21 10V22C21 23.3833 20.5123 24.5627 19.537 25.538C18.5617 26.5133 17.3827 27.0007 16 27ZM16 12C16.7 12 17.2917 11.7583 17.775 11.275C18.2583 10.7917 18.5 10.2 18.5 9.5C18.5 8.8 18.2583 8.20833 17.775 7.725C17.2917 7.24167 16.7 7 16 7C15.3 7 14.7083 7.24167 14.225 7.725C13.7417 8.20833 13.5 8.8 13.5 9.5C13.5 10.2 13.7417 10.7917 14.225 11.275C14.7083 11.7583 15.3 12 16 12ZM14.5 20C14.7833 20 15.021 19.904 15.213 19.712C15.405 19.52 15.5007 19.2827 15.5 19C15.5 18.7167 15.404 18.479 15.212 18.287C15.02 18.095 14.7827 17.9993 14.5 18C14.2167 18 13.979 18.096 13.787 18.288C13.595 18.48 13.4993 18.7173 13.5 19C13.5 19.2833 13.596 19.521 13.788 19.713C13.98 19.905 14.2173 20.0007 14.5 20ZM14.5 17C14.7833 17 15.021 16.904 15.213 16.712C15.405 16.52 15.5007 16.2827 15.5 16C15.5 15.7167 15.404 15.479 15.212 15.287C15.02 15.095 14.7827 14.9993 14.5 15C14.2167 15 13.979 15.096 13.787 15.288C13.595 15.48 13.4993 15.7173 13.5 16C13.5 16.2833 13.596 16.521 13.788 16.713C13.98 16.905 14.2173 17.0007 14.5 17ZM17.5 17C17.7833 17 18.021 16.904 18.213 16.712C18.405 16.52 18.5007 16.2827 18.5 16C18.5 15.7167 18.404 15.479 18.212 15.287C18.02 15.095 17.7827 14.9993 17.5 15C17.2167 15 16.979 15.096 16.787 15.288C16.595 15.48 16.4993 15.7173 16.5 16C16.5 16.2833 16.596 16.521 16.788 16.713C16.98 16.905 17.2173 17.0007 17.5 17ZM17.5 20C17.7833 20 18.021 19.904 18.213 19.712C18.405 19.52 18.5007 19.2827 18.5 19C18.5 18.7167 18.404 18.479 18.212 18.287C18.02 18.095 17.7827 17.9993 17.5 18C17.2167 18 16.979 18.096 16.787 18.288C16.595 18.48 16.4993 18.7173 16.5 19C16.5 19.2833 16.596 19.521 16.788 19.713C16.98 19.905 17.2173 20.0007 17.5 20ZM14.5 23C14.7833 23 15.021 22.904 15.213 22.712C15.405 22.52 15.5007 22.2827 15.5 22C15.5 21.7167 15.404 21.479 15.212 21.287C15.02 21.095 14.7827 20.9993 14.5 21C14.2167 21 13.979 21.096 13.787 21.288C13.595 21.48 13.4993 21.7173 13.5 22C13.5 22.2833 13.596 22.521 13.788 22.713C13.98 22.905 14.2173 23.0007 14.5 23ZM17.5 23C17.7833 23 18.021 22.904 18.213 22.712C18.405 22.52 18.5007 22.2827 18.5 22C18.5 21.7167 18.404 21.479 18.212 21.287C18.02 21.095 17.7827 20.9993 17.5 21C17.2167 21 16.979 21.096 16.787 21.288C16.595 21.48 16.4993 21.7173 16.5 22C16.5 22.2833 16.596 22.521 16.788 22.713C16.98 22.905 17.2173 23.0007 17.5 23Z" fill="white"/>
</svg>
