<svg width="32" height="32" viewBox="0 0 32 32" fill="none" xmlns="http://www.w3.org/2000/svg">
<path d="M8.66659 26.6663C6.62214 26.6663 4.88881 25.9552 3.46659 24.533C2.04436 23.1108 1.33325 21.3775 1.33325 19.333C1.33325 17.7108 1.92792 16.305 3.11725 15.1157C4.30659 13.9263 5.71192 13.3321 7.33325 13.333C8.75547 13.333 10.0168 13.7997 11.1173 14.733C12.2177 15.6663 12.9119 16.8108 13.1999 18.1663C13.2666 18.4997 13.4279 18.7775 13.6839 18.9997C13.9399 19.2219 14.223 19.333 14.5333 19.333C14.9777 19.333 15.3333 19.1828 15.5999 18.8823C15.8666 18.5819 15.9666 18.2432 15.8999 17.8663C15.5888 15.9552 14.7555 14.3663 13.3999 13.0997C12.0444 11.833 10.3555 11.0219 8.33325 10.6663C8.73325 9.0219 9.63903 7.7219 11.0506 6.76634C12.4621 5.81079 14.1119 5.33301 15.9999 5.33301C18.6221 5.33301 20.8333 6.23301 22.6333 8.03301C24.4333 9.83301 25.3333 12.0441 25.3333 14.6663C26.7333 14.6663 27.9724 15.2886 29.0506 16.533C30.1288 17.7775 30.6675 19.1552 30.6666 20.6663C30.6666 22.333 30.083 23.7499 28.9159 24.917C27.7488 26.0841 26.3324 26.6672 24.6666 26.6663H8.66659Z" fill="#101010"/>
</svg>
