<svg width="34" height="34" viewBox="0 0 34 34" fill="none" xmlns="http://www.w3.org/2000/svg">
<path d="M16.7634 28.3752L23.1247 15.2918C23.245 15.051 23.2311 14.8264 23.083 14.6181C22.935 14.4097 22.7359 14.3056 22.4859 14.3056H18.0551V5.65308C18.0551 5.4678 17.9648 5.35891 17.7843 5.32641C17.6037 5.29419 17.4765 5.35669 17.4026 5.51391L11.0413 18.5972C10.9211 18.8381 10.935 19.0627 11.083 19.271C11.2311 19.4793 11.4301 19.5835 11.6801 19.5835H16.1109V28.2364C16.1109 28.4214 16.2012 28.5302 16.3818 28.5627C16.5623 28.5952 16.6895 28.5327 16.7634 28.3752ZM16.9997 33.6668C14.6572 33.6668 12.472 33.2386 10.4443 32.3822C8.41648 31.5256 6.65259 30.3472 5.15259 28.8472C3.65259 27.3472 2.47426 25.5834 1.61759 23.5556C0.761202 21.5278 0.333008 19.3427 0.333008 17.0002C0.333008 14.676 0.761202 12.5 1.61759 10.4722C2.47426 8.44447 3.65259 6.68058 5.15259 5.18058C6.65259 3.68058 8.41648 2.4978 10.4443 1.63225C12.472 0.766412 14.6572 0.333496 16.9997 0.333496C19.3238 0.333496 21.4998 0.766412 23.5276 1.63225C25.5554 2.4978 27.3193 3.68058 28.8193 5.18058C30.3193 6.68058 31.502 8.44447 32.3676 10.4722C33.2334 12.5 33.6663 14.676 33.6663 17.0002C33.6663 19.3427 33.2334 21.5278 32.3676 23.5556C31.502 25.5834 30.3193 27.3472 28.8193 28.8472C27.3193 30.3472 25.5554 31.5256 23.5276 32.3822C21.4998 33.2386 19.3238 33.6668 16.9997 33.6668Z" fill="#1C1B1F"/>
</svg>
