<svg width="28" height="34" viewBox="0 0 28 34" fill="none" xmlns="http://www.w3.org/2000/svg">
<path d="M12.5837 22H15.417C15.6253 22 15.807 21.9132 15.962 21.7396C16.1173 21.566 16.1671 21.375 16.1116 21.1667L15.2366 16.1804C15.8007 15.9185 16.2449 15.5385 16.5691 15.0404C16.8935 14.5424 17.0557 13.9918 17.0557 13.3888C17.0557 12.5485 16.7563 11.8292 16.1574 11.2308C15.5588 10.6325 14.8389 10.3333 13.9978 10.3333C13.157 10.3333 12.438 10.6325 11.8407 11.2308C11.2435 11.8292 10.9449 12.5485 10.9449 13.3888C10.9449 13.9918 11.1071 14.5424 11.4316 15.0404C11.7557 15.5385 12.1999 15.9185 12.7641 16.1804L11.8891 21.1667C11.8335 21.375 11.8834 21.566 12.0387 21.7396C12.1937 21.9132 12.3753 22 12.5837 22ZM14.0003 33.5C13.837 33.5 13.6853 33.4861 13.5453 33.4583C13.4053 33.4306 13.2653 33.3889 13.1253 33.3333C9.30116 32.0464 6.2688 29.7154 4.02824 26.3404C1.78741 22.9654 0.666992 19.2861 0.666992 15.3025V7.23625C0.666992 6.64819 0.83477 6.11889 1.17033 5.64833C1.50616 5.17778 1.94019 4.83667 2.47241 4.625L13.0282 0.680417C13.3616 0.56014 13.6856 0.5 14.0003 0.5C14.315 0.5 14.6391 0.56014 14.9724 0.680417L25.5282 4.625C26.0605 4.83667 26.4945 5.17778 26.8303 5.64833C27.1659 6.11889 27.3337 6.64819 27.3337 7.23625V15.3025C27.3337 19.2861 26.2132 22.9654 23.9724 26.3404C21.7319 29.7154 18.6995 32.0464 14.8753 33.3333C14.7353 33.3889 14.5953 33.4306 14.4553 33.4583C14.3153 33.4861 14.1637 33.5 14.0003 33.5Z" fill="#1C1B1F"/>
</svg>
