<svg width="34" height="28" viewBox="0 0 34 28" fill="none" xmlns="http://www.w3.org/2000/svg">
<path d="M27.4163 15.2501C27.7705 15.2501 28.0675 15.1295 28.3072 14.8884C28.5466 14.6476 28.6663 14.349 28.6663 13.9926C28.6663 13.6365 28.5466 13.3404 28.3072 13.1042C28.0675 12.8681 27.7705 12.7501 27.4163 12.7501H22.4163C22.0622 12.7501 21.7654 12.8706 21.5259 13.1117C21.2862 13.3526 21.1663 13.6512 21.1663 14.0076C21.1663 14.3637 21.2862 14.6598 21.5259 14.8959C21.7654 15.132 22.0622 15.2501 22.4163 15.2501H27.4163ZM27.4163 10.2501C27.7705 10.2501 28.0675 10.1295 28.3072 9.88842C28.5466 9.64758 28.6663 9.34897 28.6663 8.99258C28.6663 8.63647 28.5466 8.34036 28.3072 8.10425C28.0675 7.86814 27.7705 7.75008 27.4163 7.75008H22.4163C22.0622 7.75008 21.7654 7.87064 21.5259 8.11175C21.2862 8.35258 21.1663 8.65119 21.1663 9.00758C21.1663 9.36369 21.2862 9.6598 21.5259 9.89591C21.7654 10.132 22.0622 10.2501 22.4163 10.2501H27.4163ZM11.9997 15.9167C10.9441 15.9167 10.0186 16.007 9.22301 16.1876C8.42773 16.3681 7.72829 16.6529 7.12467 17.0417C6.56912 17.3473 6.13856 17.738 5.83301 18.2138C5.52745 18.6899 5.37467 19.202 5.37467 19.7501C5.37467 20.012 5.46745 20.2302 5.65301 20.4047C5.83829 20.5794 6.06495 20.6667 6.33301 20.6667H17.6663C17.9344 20.6667 18.1611 20.5762 18.3463 20.3951C18.5319 20.2142 18.6247 19.9854 18.6247 19.7084C18.6247 19.217 18.4788 18.7399 18.1872 18.2772C17.8955 17.8147 17.4719 17.4029 16.9163 17.0417C16.3052 16.6529 15.5969 16.3681 14.7913 16.1876C13.9858 16.007 13.0552 15.9167 11.9997 15.9167ZM11.9963 13.4167C12.8319 13.4167 13.5483 13.1192 14.1455 12.5242C14.7427 11.9292 15.0413 11.214 15.0413 10.3784C15.0413 9.54286 14.7438 8.82647 14.1488 8.22925C13.5538 7.63203 12.8386 7.33341 12.003 7.33341C11.1675 7.33341 10.4511 7.63091 9.85384 8.22591C9.25662 8.82091 8.95801 9.53619 8.95801 10.3717C8.95801 11.2073 9.25551 11.9237 9.85051 12.5209C10.4455 13.1181 11.1608 13.4167 11.9963 13.4167ZM2.83301 27.3334C2.16634 27.3334 1.58301 27.0834 1.08301 26.5834C0.583008 26.0834 0.333008 25.5001 0.333008 24.8334V3.16675C0.333008 2.50008 0.583008 1.91675 1.08301 1.41675C1.58301 0.916748 2.16634 0.666748 2.83301 0.666748H31.1663C31.833 0.666748 32.4163 0.916748 32.9163 1.41675C33.4163 1.91675 33.6663 2.50008 33.6663 3.16675V24.8334C33.6663 25.5001 33.4163 26.0834 32.9163 26.5834C32.4163 27.0834 31.833 27.3334 31.1663 27.3334H2.83301Z" fill="#1C1B1F"/>
</svg>
