<svg width="34" height="35" viewBox="0 0 34 35" fill="none" xmlns="http://www.w3.org/2000/svg">
<path d="M24.0663 10.4335C22.1163 8.4835 19.5663 7.50016 16.9997 7.50016V17.5002L9.93301 24.5668C13.833 28.4668 20.1663 28.4668 24.083 24.5668C27.983 20.6668 27.983 14.3335 24.0663 10.4335ZM16.9997 0.833496C7.79967 0.833496 0.333008 8.30016 0.333008 17.5002C0.333008 26.7002 7.79967 34.1668 16.9997 34.1668C26.1997 34.1668 33.6663 26.7002 33.6663 17.5002C33.6663 8.30016 26.1997 0.833496 16.9997 0.833496ZM16.9997 30.8335C9.63301 30.8335 3.66634 24.8668 3.66634 17.5002C3.66634 10.1335 9.63301 4.16683 16.9997 4.16683C24.3663 4.16683 30.333 10.1335 30.333 17.5002C30.333 24.8668 24.3663 30.8335 16.9997 30.8335Z" fill="black"/>
</svg>
