<svg width="34" height="35" viewBox="0 0 34 35" fill="none" xmlns="http://www.w3.org/2000/svg">
<path d="M16.9997 0.833496C7.79967 0.833496 0.333008 8.30016 0.333008 17.5002C0.333008 26.7002 7.79967 34.1668 16.9997 34.1668C26.1997 34.1668 33.6663 26.7002 33.6663 17.5002C33.6663 8.30016 26.1997 0.833496 16.9997 0.833496ZM16.9997 30.8335C9.64968 30.8335 3.66634 24.8502 3.66634 17.5002C3.66634 10.1502 9.64968 4.16683 16.9997 4.16683C24.3497 4.16683 30.333 10.1502 30.333 17.5002C30.333 24.8502 24.3497 30.8335 16.9997 30.8335ZM17.5163 16.0668C14.5663 15.3168 13.6163 14.5002 13.6163 13.2835C13.6163 11.8835 14.933 10.9002 17.1163 10.9002C19.4163 10.9002 20.283 12.0002 20.3497 13.6335H23.1997C23.1163 11.4002 21.7497 9.35016 19.0497 8.6835V5.8335H15.1663V8.65016C12.6497 9.1835 10.633 10.8168 10.633 13.3335C10.633 16.3168 13.1163 17.8168 16.733 18.6835C19.983 19.4502 20.633 20.6002 20.633 21.8002C20.633 22.6835 19.983 24.1168 17.133 24.1168C14.4663 24.1168 13.4163 22.9168 13.2663 21.3835H10.3997C10.5663 24.2168 12.6663 25.8168 15.1663 26.3335V29.1668H19.0663V26.3835C21.5997 25.9002 23.5997 24.4502 23.6163 21.7668C23.5997 18.1002 20.4497 16.8335 17.5163 16.0668Z" fill="black"/>
</svg>
