<svg width="32" height="32" viewBox="0 0 32 32" fill="none" xmlns="http://www.w3.org/2000/svg">
<g clip-path="url(#clip0_6098_4995)">
<rect width="32" height="32" rx="16" fill="white"/>
<path d="M17.0032 7C12.5903 7 9.00161 10.5871 9 14.9965C8.99936 16.5077 9.42234 17.979 10.223 19.2523L10.4131 19.5548L9.60508 22.5059L12.6327 21.7119L12.925 21.8853C14.1532 22.6141 15.5612 22.9994 16.9968 23H17C21.4093 23 24.9981 19.4126 25 15.0029C25.001 12.866 24.1695 10.8568 22.659 9.34529C21.1485 7.83345 19.1399 7.00064 17.0032 7ZM21.709 18.4346C21.5086 18.9961 20.5476 19.5089 20.0858 19.5776C19.6715 19.6395 19.147 19.6652 18.5712 19.4822C18.222 19.3715 17.774 19.2235 17.2001 18.9759C14.7871 17.9347 13.2115 15.5063 13.0914 15.3461C12.9713 15.1856 12.1092 14.0426 12.1092 12.8592C12.1092 11.6758 12.7304 11.0944 12.951 10.8536C13.1713 10.6128 13.4321 10.5528 13.5924 10.5528C13.7527 10.5528 13.9132 10.5544 14.0533 10.5611C14.201 10.5685 14.3992 10.5053 14.5944 10.9737C14.7949 11.4553 15.276 12.6383 15.336 12.7587C15.3961 12.8791 15.4362 13.0194 15.3559 13.1799C15.2756 13.3402 15.2358 13.4406 15.1154 13.5809C14.9949 13.7212 14.8629 13.8943 14.7547 14.0022C14.6343 14.1219 14.509 14.2523 14.6494 14.4927C14.7897 14.7335 15.2724 15.5207 15.9874 16.158C16.9059 16.977 17.6809 17.231 17.9214 17.3514C18.162 17.4718 18.3023 17.4516 18.4424 17.2914C18.5827 17.1308 19.0436 16.5892 19.2039 16.3487C19.3641 16.1083 19.5244 16.1481 19.745 16.2283C19.9654 16.3086 21.1479 16.89 21.3885 17.0104C21.629 17.1308 21.7893 17.1909 21.8493 17.2914C21.9094 17.3915 21.9094 17.8731 21.709 18.4346Z" fill="#686868"/>
<path d="M16 0C7.16353 0 0 7.16353 0 16C0 24.8365 7.16353 32 16 32C24.8365 32 32 24.8365 32 16C32 7.16353 24.8365 0 16 0ZM16.6483 24.5876C16.648 24.5876 16.6486 24.5876 16.6483 24.5876H16.6444C15.0169 24.587 13.4179 24.1788 11.9977 23.404L6.84296 24.7563L8.22258 19.7174C7.37151 18.2427 6.92375 16.5698 6.92472 14.8563C6.92635 9.49481 11.2888 5.13303 16.6483 5.13303C19.2495 5.134 21.6911 6.14666 23.5269 7.98475C25.3628 9.82252 26.3735 12.2657 26.3722 14.864C26.3699 20.2255 22.0075 24.5876 16.6483 24.5876Z" fill="#686868"/>
</g>
<defs>
<clipPath id="clip0_6098_4995">
<rect width="32" height="32" rx="16" fill="white"/>
</clipPath>
</defs>
</svg>
