<svg width="36" height="36" viewBox="0 0 36 36" fill="none" xmlns="http://www.w3.org/2000/svg">
<path d="M16.2217 19.6944L13.3883 16.7915C13.12 16.5046 12.789 16.3611 12.3954 16.3611C12.0018 16.3611 11.657 16.5 11.3608 16.7777C11.0736 17.0647 10.93 17.4072 10.93 17.8052C10.93 18.2036 11.0736 18.5462 11.3608 18.8332L15.2496 22.6944C15.5274 22.9722 15.8514 23.1111 16.2217 23.1111C16.5922 23.1111 16.9164 22.9722 17.1942 22.6944L24.6383 15.2777C24.9161 15 25.0528 14.6666 25.0483 14.2777C25.0436 13.8889 24.8978 13.5555 24.6108 13.2777C24.3331 13.0183 24.002 12.8909 23.6175 12.8957C23.2333 12.9004 22.9117 13.0323 22.6525 13.2915L16.2217 19.6944ZM11.7496 34.4165L9.22168 30.1111L4.2496 29.0832C3.9071 29.0184 3.62474 28.8355 3.40251 28.5344C3.18029 28.2336 3.09696 27.9119 3.15251 27.5694L3.69418 22.6665L0.45793 18.9165C0.217096 18.6665 0.0966797 18.3609 0.0966797 17.9998C0.0966797 17.6387 0.217096 17.3332 0.45793 17.0832L3.69418 13.3611L3.15251 8.45816C3.09696 8.11566 3.18029 7.79386 3.40251 7.49275C3.62474 7.19192 3.9071 7.00914 4.2496 6.94441L9.22168 5.9165L11.7496 1.58316C11.9349 1.27761 12.1942 1.06691 12.5275 0.951082C12.8608 0.835526 13.1942 0.851775 13.5275 0.999831L17.9996 3.02775L22.4717 0.999831C22.805 0.851775 23.1383 0.830942 23.4717 0.937331C23.805 1.04372 24.0643 1.24969 24.2496 1.55525L26.805 5.9165L31.7496 6.94441C32.0921 7.00914 32.3745 7.19192 32.5967 7.49275C32.8189 7.79386 32.9022 8.11566 32.8467 8.45816L32.305 13.3611L35.5413 17.0832C35.7821 17.3332 35.9025 17.6387 35.9025 17.9998C35.9025 18.3609 35.7821 18.6665 35.5413 18.9165L32.305 22.6665L32.8467 27.5694C32.9022 27.9119 32.8189 28.2336 32.5967 28.5344C32.3745 28.8355 32.0921 29.0184 31.7496 29.0832L26.805 30.1111L24.2496 34.4444C24.0643 34.75 23.805 34.9559 23.4717 35.0623C23.1383 35.1687 22.805 35.1479 22.4717 34.9998L17.9996 32.9719L13.5275 34.9998C13.1942 35.1479 12.8608 35.1641 12.5275 35.0486C12.1942 34.9328 11.9349 34.7221 11.7496 34.4165Z" fill="#1C1B1F"/>
</svg>
