<svg width="36" height="33" viewBox="0 0 36 33" fill="none" xmlns="http://www.w3.org/2000/svg">
<path d="M32.5551 11.5555C33.2773 11.5555 33.9209 11.838 34.4859 12.403C35.0506 12.9677 35.333 13.6111 35.333 14.3334V17.7221C35.333 17.9907 35.3029 18.2963 35.2426 18.6388C35.1826 18.9816 35.0923 19.2871 34.9718 19.5555L30.083 30.9167C29.833 31.4909 29.4209 31.9816 28.8468 32.3888C28.2729 32.7963 27.6665 33 27.0276 33H11.2772C10.5088 33 9.85384 32.7292 9.31217 32.1875C8.77051 31.6459 8.49967 30.9907 8.49967 30.2221V12.6805C8.49967 12.3288 8.57148 11.9839 8.71509 11.6459C8.85843 11.3078 9.05509 11.0138 9.30509 10.7638L18.0688 1.70837C18.4672 1.31948 18.9418 1.08337 19.4926 1.00004C20.0434 0.916704 20.5643 1.01393 21.0551 1.2917C21.5459 1.56948 21.9094 1.95837 22.1455 2.45837C22.3816 2.95837 22.4394 3.47226 22.3188 4.00004L20.6384 11.5555H32.5551ZM3.02759 33C2.29592 33 1.66398 32.7338 1.13176 32.2013C0.599258 31.6691 0.333008 31.0371 0.333008 30.3055V14.25C0.333008 13.5186 0.599258 12.8867 1.13176 12.3542C1.66398 11.8217 2.29592 11.5555 3.02759 11.5555C3.75898 11.5555 4.39092 11.8217 4.92342 12.3542C5.45565 12.8867 5.72176 13.5186 5.72176 14.25V30.3055C5.72176 31.0371 5.45565 31.6691 4.92342 32.2013C4.39092 32.7338 3.75898 33 3.02759 33Z" fill="#1C1B1F"/>
</svg>
